<?xml version="1.0" encoding="utf-8"?>
<!-- Generator: Adobe Illustrator 23.0.5, SVG Export Plug-In . SVG Version: 6.00 Build 0)  -->
<svg version="1.1" id="Capa_1" xmlns="http://www.w3.org/2000/svg" xmlns:xlink="http://www.w3.org/1999/xlink" x="0px" y="0px"
	 viewBox="0 0 700 700" style="enable-background:new 0 0 700 700;" xml:space="preserve">
<style type="text/css">
	.st0{fill:#0A0F11;}
</style>
<g>
	<g>
		<g>
			<path class="st0" d="M191.3,547.6c-6.3-4.2-14.9-7.9-19.4-7.9c-6,0-26.1-0.5-34.3,0.7c-7.6,1.2-11.3,2.5-21.7,9.8
				c-6.8,8.6-10.7,19.6-10.4,31.4c0.6,27.2,23.2,48.7,50.4,48.1c27.2-0.6,48.7-23.2,48.1-50.4C203.7,567.2,198.9,556,191.3,547.6z
				 M155.6,616.1c-19.6,0.5-35.9-15.1-36.4-34.7c-0.5-19.6,15.1-35.9,34.7-36.4c19.6-0.5,35.9,15.1,36.4,34.7
				C190.8,599.4,175.2,615.7,155.6,616.1z"/>
			<path class="st0" d="M155,592.8c-2.1,0-4-0.4-5.8-1.3l-10.6,12.7c4.8,3.2,10.5,5.1,16.7,5c6.2-0.1,11.9-2.3,16.5-5.7l-11.2-12.2
				C159,592.2,157.1,592.8,155,592.8z"/>
			<path class="st0" d="M154.5,568.3c2.1,0,4,0.4,5.8,1.3l10.6-12.7c-4.8-3.2-10.5-5.1-16.7-5c-6.2,0.1-11.9,2.3-16.5,5.7l11.2,12.2
				C150.5,569,152.4,568.4,154.5,568.3z"/>
			<path class="st0" d="M165.4,574.6c0.9,1.7,1.5,3.6,1.6,5.7c0,2.1-0.4,4-1.3,5.8l12.7,10.6c3.2-4.8,5.1-10.5,5-16.7
				c-0.1-6.2-2.3-11.9-5.7-16.5L165.4,574.6z"/>
			<path class="st0" d="M142.5,580.9c0-2.1,0.4-4,1.3-5.8l-12.7-10.6c-3.2,4.8-5.1,10.5-5,16.7c0.1,6.2,2.3,11.9,5.7,16.5l12.2-11.2
				C143.1,584.9,142.6,582.9,142.5,580.9z"/>
			<path class="st0" d="M154.6,574.2c-3.5,0.1-6.3,3-6.3,6.6c0.1,3.5,3,6.3,6.6,6.3c3.5-0.1,6.3-3,6.3-6.6
				C161.1,576.9,158.1,574.1,154.6,574.2z"/>
		</g>
	</g>
	<g>
		<g>
			<path class="st0" d="M604.7,553.5c-5.9-4.2-13.9-6.2-17.8-6.2c-5,0-31.6,0-39.6,0c-7,0-19.4,7.5-26.9,16
				c-2.8,6.4-4.3,13.5-4.2,21c0.6,27.2,23.2,48.7,50.4,48.1c27.2-0.6,48.7-23.2,48.1-50.4C614.3,571.3,610.7,561.4,604.7,553.5z
				 M566.2,618.7c-19.6,0.5-35.9-15.1-36.4-34.7c-0.5-19.6,15.1-35.9,34.7-36.4c19.6-0.5,35.9,15.1,36.4,34.7
				C601.4,601.9,585.8,618.2,566.2,618.7z"/>
			<path class="st0" d="M565.7,595.4c-2.1,0-4-0.4-5.8-1.3l-10.6,12.7c4.8,3.2,10.5,5.1,16.7,5c6.2-0.1,11.9-2.3,16.5-5.7
				l-11.2-12.2C569.7,594.7,567.7,595.3,565.7,595.4z"/>
			<path class="st0" d="M565.1,570.9c2.1,0,4,0.4,5.8,1.3l10.6-12.7c-4.8-3.2-10.5-5.1-16.7-5c-6.2,0.1-11.9,2.3-16.5,5.7l11.2,12.2
				C561.1,571.5,563,570.9,565.1,570.9z"/>
			<path class="st0" d="M576.1,577.2c0.9,1.7,1.5,3.6,1.6,5.7c0,2.1-0.4,4-1.3,5.8l12.7,10.6c3.2-4.8,5.1-10.5,5-16.7
				c-0.1-6.2-2.3-11.9-5.7-16.5L576.1,577.2z"/>
			<path class="st0" d="M553.2,583.4c0-2.1,0.4-4,1.3-5.8l-12.7-10.6c-3.2,4.8-5.1,10.5-5,16.7c0.1,6.2,2.3,11.9,5.7,16.5l12.2-11.2
				C553.8,587.4,553.2,585.5,553.2,583.4z"/>
			<path class="st0" d="M565.2,576.7c-3.5,0.1-6.3,3-6.3,6.6c0.1,3.5,3,6.3,6.6,6.3s6.3-3,6.3-6.6
				C571.7,579.4,568.8,576.6,565.2,576.7z"/>
		</g>
	</g>
	<path class="st0" d="M693,527l-14.6-7.3l-12.6-2.2c-64.3-13-129.8-18.9-195.4-17.5l-12.6,0.3l-60.1-43.6
		c-12.6-9.2-27.9-14-43.4-13.7l-101.1,1.5c-25.9,0.4-51.3,6.6-74.5,18.1l-46.7,23.2l-88,5.7c-10.7,0.7-21.1,3.7-30.5,8.8l-2.9,1.6
		c-4.2,2.3-7,6.3-7.8,10.9h195.8c8.6,0,17.2,1.2,25.5,3.6l15.8,4.5c7.3,2.1,14.9,3.2,22.5,3.4c0,0,34-1.5,189,3.7
		c0,0-189.1,2.1-189.1,2.1c-8.1-0.1-16.2-1.3-24-3.6l-15.8-4.5c-7.8-2.2-15.8-3.4-23.9-3.4H2.7v3.7c0,0.5,0.1,1,0.4,1.4
		c3.9,7.3,9,13.9,15,19.6l2.2,2c1,1,1.6,2.3,1.6,3.7v6.5c0,1.7,0.7,3.4,1.9,4.6c7.5,7.4,17.4,12,27.9,13.1l41.2,4.2
		c5.1-19.1,20.2-34,39.4-38.8l3.4-0.8c1.5-0.4,3.1-0.6,4.7-0.6h27.4c24.5,0,44.4,19.9,44.4,44.4V599h169.4l8.7,5.1h109.6l1.2-6.6
		c3.7-20,15.8-37.5,33.3-47.9l0.3-0.2c4.4-2.6,9.2-4,14.2-4h34.9c22.3,0,40.4,18.1,40.4,40.4v9.5l18.5-2.9
		c10.2-1.6,19.7-5.7,27.9-12l5.3-4.1c1.7-1.3,2.7-3.3,2.7-5.4v-2c0-1.8,0.7-3.6,1.9-5l8.4-9.3c1.8-2,4.3-3.1,7-3.1h0.4
		c2,0,3.6-1.6,3.6-3.6V538C699.8,533.3,697.2,529.1,693,527z M226.1,487.3l-14-0.7l27.9-18.2c12.9-8.4,27.7-13.2,43-14l-29.2,39.7
		C245.1,490.1,235.7,487.8,226.1,487.3z M288.5,518.8h-18.7v-2c0-2.3,1.8-4.1,4.1-4.1h10.5c2.3,0,4.1,1.8,4.1,4.1V518.8z
		 M431.3,504.5H292c-6.7,0-13.3-0.9-19.7-2.7l-0.5-4.4c-0.7-5.8,0.6-11.6,3.7-16.5l16.8-26.6h61.7c14.4,0,28.4,4.8,39.7,13.5
		l39.7,30.6C435.9,500.4,434.5,504.5,431.3,504.5z M56,537.2H29.6l-8-10.4H56V537.2z M678.4,551.2l-4.3,4.5
		c-0.7,0.8-1.7,1.2-2.8,1.2h-21.7c-2,0-3.6-1.5-3.8-3.4l-0.4-3.2c-0.1-1,0.7-1.9,1.7-1.9h30C678.7,548.3,679.4,550.1,678.4,551.2z"
		/>
</g>
</svg>
